<?xml version="1.0" encoding="UTF-8"?>
<svg xmlns="http://www.w3.org/2000/svg" viewBox="0 0 920 520" width="920" height="520">
  <rect width="100%" height="100%" fill="#ffffff"/>
  <text x="460" y="28" text-anchor="middle" font-size="16" font-weight="600" fill="#111827">bench_batch — pairwise + k-NN (ms, not full UMAP fit)</text>
  <text x="460" y="44" text-anchor="middle" font-size="11" fill="#6b7280">d=64, k=15, release, warmup=1, runs=5 · building blocks only · RTX 4090 / Apple Silicon</text>
  <text x="396" y="510" text-anchor="middle" font-size="12" fill="#374151">n (points)</text>
  <text transform="translate(18 252) rotate(-90)" text-anchor="middle" font-size="12" fill="#374151">time (ms, log)</text>
  <line x1="72" y1="48" x2="72" y2="456" stroke="#374151" stroke-width="1.5"/>
  <line x1="72" y1="456" x2="720" y2="456" stroke="#374151" stroke-width="1.5"/>
  <line x1="72" y1="456.0" x2="720" y2="456.0" stroke="#e5e7eb" stroke-width="1"/>
<text x="64" y="460.0" text-anchor="end" font-size="11" fill="#6b7280">0.001</text>
<line x1="72" y1="388.0" x2="720" y2="388.0" stroke="#e5e7eb" stroke-width="1"/>
<text x="64" y="392.0" text-anchor="end" font-size="11" fill="#6b7280">0.01</text>
<line x1="72" y1="320.0" x2="720" y2="320.0" stroke="#e5e7eb" stroke-width="1"/>
<text x="64" y="324.0" text-anchor="end" font-size="11" fill="#6b7280">0.1</text>
<line x1="72" y1="252.0" x2="720" y2="252.0" stroke="#e5e7eb" stroke-width="1"/>
<text x="64" y="256.0" text-anchor="end" font-size="11" fill="#6b7280">1</text>
<line x1="72" y1="184.0" x2="720" y2="184.0" stroke="#e5e7eb" stroke-width="1"/>
<text x="64" y="188.0" text-anchor="end" font-size="11" fill="#6b7280">10</text>
<line x1="72" y1="116.0" x2="720" y2="116.0" stroke="#e5e7eb" stroke-width="1"/>
<text x="64" y="120.0" text-anchor="end" font-size="11" fill="#6b7280">100</text>
<line x1="72" y1="48.0" x2="720" y2="48.0" stroke="#e5e7eb" stroke-width="1"/>
<text x="64" y="52.0" text-anchor="end" font-size="11" fill="#6b7280">1000</text>
<line x1="72.0" y1="48" x2="72.0" y2="456" stroke="#f3f4f6" stroke-width="1"/>
<text x="72.0" y="492" text-anchor="middle" font-size="11" fill="#6b7280">2</text>
<line x1="130.9" y1="48" x2="130.9" y2="456" stroke="#f3f4f6" stroke-width="1"/>
<line x1="189.8" y1="48" x2="189.8" y2="456" stroke="#f3f4f6" stroke-width="1"/>
<text x="189.8" y="492" text-anchor="middle" font-size="11" fill="#6b7280">8</text>
<line x1="248.7" y1="48" x2="248.7" y2="456" stroke="#f3f4f6" stroke-width="1"/>
<line x1="307.6" y1="48" x2="307.6" y2="456" stroke="#f3f4f6" stroke-width="1"/>
<text x="307.6" y="492" text-anchor="middle" font-size="11" fill="#6b7280">32</text>
<line x1="366.5" y1="48" x2="366.5" y2="456" stroke="#f3f4f6" stroke-width="1"/>
<line x1="425.5" y1="48" x2="425.5" y2="456" stroke="#f3f4f6" stroke-width="1"/>
<text x="425.5" y="492" text-anchor="middle" font-size="11" fill="#6b7280">128</text>
<line x1="484.4" y1="48" x2="484.4" y2="456" stroke="#f3f4f6" stroke-width="1"/>
<line x1="543.3" y1="48" x2="543.3" y2="456" stroke="#f3f4f6" stroke-width="1"/>
<text x="543.3" y="492" text-anchor="middle" font-size="11" fill="#6b7280">512</text>
<line x1="602.2" y1="48" x2="602.2" y2="456" stroke="#f3f4f6" stroke-width="1"/>
<line x1="661.1" y1="48" x2="661.1" y2="456" stroke="#f3f4f6" stroke-width="1"/>
<text x="661.1" y="492" text-anchor="middle" font-size="11" fill="#6b7280">2048</text>
<line x1="720.0" y1="48" x2="720.0" y2="456" stroke="#f3f4f6" stroke-width="1"/>
<text x="720.0" y="492" text-anchor="middle" font-size="11" fill="#6b7280">4096</text>
<polyline fill="none" stroke="#6b7280" stroke-width="2" stroke-dasharray="" points="72.0,456.0 130.9,456.0 189.8,435.5 248.7,398.5 307.6,369.0 366.5,322.1 425.5,294.4 484.4,264.0 543.3,237.0 602.2,198.8 661.1,161.1 720.0,119.7"/>
<circle cx="72.0" cy="456.0" r="3" fill="#6b7280"/>
<circle cx="130.9" cy="456.0" r="3" fill="#6b7280"/>
<circle cx="189.8" cy="435.5" r="3" fill="#6b7280"/>
<circle cx="248.7" cy="398.5" r="3" fill="#6b7280"/>
<circle cx="307.6" cy="369.0" r="3" fill="#6b7280"/>
<circle cx="366.5" cy="322.1" r="3" fill="#6b7280"/>
<circle cx="425.5" cy="294.4" r="3" fill="#6b7280"/>
<circle cx="484.4" cy="264.0" r="3" fill="#6b7280"/>
<circle cx="543.3" cy="237.0" r="3" fill="#6b7280"/>
<circle cx="602.2" cy="198.8" r="3" fill="#6b7280"/>
<circle cx="661.1" cy="161.1" r="3" fill="#6b7280"/>
<circle cx="720.0" cy="119.7" r="3" fill="#6b7280"/>
<polyline fill="none" stroke="#2563eb" stroke-width="2" stroke-dasharray="" points="72.0,275.7 130.9,279.6 189.8,281.7 248.7,280.0 307.6,281.0 366.5,271.3 425.5,270.1 484.4,262.6 543.3,244.0 602.2,226.2 661.1,215.8 720.0,182.3"/>
<circle cx="72.0" cy="275.7" r="3" fill="#2563eb"/>
<circle cx="130.9" cy="279.6" r="3" fill="#2563eb"/>
<circle cx="189.8" cy="281.7" r="3" fill="#2563eb"/>
<circle cx="248.7" cy="280.0" r="3" fill="#2563eb"/>
<circle cx="307.6" cy="281.0" r="3" fill="#2563eb"/>
<circle cx="366.5" cy="271.3" r="3" fill="#2563eb"/>
<circle cx="425.5" cy="270.1" r="3" fill="#2563eb"/>
<circle cx="484.4" cy="262.6" r="3" fill="#2563eb"/>
<circle cx="543.3" cy="244.0" r="3" fill="#2563eb"/>
<circle cx="602.2" cy="226.2" r="3" fill="#2563eb"/>
<circle cx="661.1" cy="215.8" r="3" fill="#2563eb"/>
<circle cx="720.0" cy="182.3" r="3" fill="#2563eb"/>
<polyline fill="none" stroke="#7c3aed" stroke-width="2" stroke-dasharray="" points="72.0,297.8 130.9,294.0 189.8,297.8 248.7,296.3 307.6,297.0 366.5,281.4 425.5,278.8 484.4,271.7 543.3,264.7 602.2,246.4 661.1,223.3 720.0,180.7"/>
<circle cx="72.0" cy="297.8" r="3" fill="#7c3aed"/>
<circle cx="130.9" cy="294.0" r="3" fill="#7c3aed"/>
<circle cx="189.8" cy="297.8" r="3" fill="#7c3aed"/>
<circle cx="248.7" cy="296.3" r="3" fill="#7c3aed"/>
<circle cx="307.6" cy="297.0" r="3" fill="#7c3aed"/>
<circle cx="366.5" cy="281.4" r="3" fill="#7c3aed"/>
<circle cx="425.5" cy="278.8" r="3" fill="#7c3aed"/>
<circle cx="484.4" cy="271.7" r="3" fill="#7c3aed"/>
<circle cx="543.3" cy="264.7" r="3" fill="#7c3aed"/>
<circle cx="602.2" cy="246.4" r="3" fill="#7c3aed"/>
<circle cx="661.1" cy="223.3" r="3" fill="#7c3aed"/>
<circle cx="720.0" cy="180.7" r="3" fill="#7c3aed"/>
<polyline fill="none" stroke="#0d9488" stroke-width="2" stroke-dasharray="" points="72.0,191.1 130.9,191.0 189.8,190.9 248.7,190.8 307.6,190.8 366.5,190.0 425.5,189.9 484.4,189.1 543.3,185.5 602.2,186.4 661.1,176.2 720.0,147.3"/>
<circle cx="72.0" cy="191.1" r="3" fill="#0d9488"/>
<circle cx="130.9" cy="191.0" r="3" fill="#0d9488"/>
<circle cx="189.8" cy="190.9" r="3" fill="#0d9488"/>
<circle cx="248.7" cy="190.8" r="3" fill="#0d9488"/>
<circle cx="307.6" cy="190.8" r="3" fill="#0d9488"/>
<circle cx="366.5" cy="190.0" r="3" fill="#0d9488"/>
<circle cx="425.5" cy="189.9" r="3" fill="#0d9488"/>
<circle cx="484.4" cy="189.1" r="3" fill="#0d9488"/>
<circle cx="543.3" cy="185.5" r="3" fill="#0d9488"/>
<circle cx="602.2" cy="186.4" r="3" fill="#0d9488"/>
<circle cx="661.1" cy="176.2" r="3" fill="#0d9488"/>
<circle cx="720.0" cy="147.3" r="3" fill="#0d9488"/>
<polyline fill="none" stroke="#9ca3af" stroke-width="2" stroke-dasharray="4,3" points="72.0,423.6 130.9,403.1 189.8,380.3 248.7,358.7 307.6,328.1 366.5,283.4 425.5,257.9 484.4,224.3 543.3,191.4 602.2,153.0 661.1,113.1 720.0,72.5"/>
<circle cx="72.0" cy="423.6" r="3" fill="#9ca3af"/>
<circle cx="130.9" cy="403.1" r="3" fill="#9ca3af"/>
<circle cx="189.8" cy="380.3" r="3" fill="#9ca3af"/>
<circle cx="248.7" cy="358.7" r="3" fill="#9ca3af"/>
<circle cx="307.6" cy="328.1" r="3" fill="#9ca3af"/>
<circle cx="366.5" cy="283.4" r="3" fill="#9ca3af"/>
<circle cx="425.5" cy="257.9" r="3" fill="#9ca3af"/>
<circle cx="484.4" cy="224.3" r="3" fill="#9ca3af"/>
<circle cx="543.3" cy="191.4" r="3" fill="#9ca3af"/>
<circle cx="602.2" cy="153.0" r="3" fill="#9ca3af"/>
<circle cx="661.1" cy="113.1" r="3" fill="#9ca3af"/>
<circle cx="720.0" cy="72.5" r="3" fill="#9ca3af"/>
<polyline fill="none" stroke="#059669" stroke-width="2" stroke-dasharray="" points="72.0,258.1 130.9,256.2 189.8,257.2 248.7,255.3 307.6,253.5 366.5,244.7 425.5,239.2 484.4,237.9 543.3,225.1 602.2,211.2 661.1,193.7 720.0,174.0"/>
<circle cx="72.0" cy="258.1" r="3" fill="#059669"/>
<circle cx="130.9" cy="256.2" r="3" fill="#059669"/>
<circle cx="189.8" cy="257.2" r="3" fill="#059669"/>
<circle cx="248.7" cy="255.3" r="3" fill="#059669"/>
<circle cx="307.6" cy="253.5" r="3" fill="#059669"/>
<circle cx="366.5" cy="244.7" r="3" fill="#059669"/>
<circle cx="425.5" cy="239.2" r="3" fill="#059669"/>
<circle cx="484.4" cy="237.9" r="3" fill="#059669"/>
<circle cx="543.3" cy="225.1" r="3" fill="#059669"/>
<circle cx="602.2" cy="211.2" r="3" fill="#059669"/>
<circle cx="661.1" cy="193.7" r="3" fill="#059669"/>
<circle cx="720.0" cy="174.0" r="3" fill="#059669"/>
<polyline fill="none" stroke="#16a34a" stroke-width="2" stroke-dasharray="8,4" points="72.0,291.3 130.9,293.7 189.8,292.6 248.7,289.6 307.6,290.9 366.5,277.8 425.5,270.4 484.4,258.8 543.3,235.4 602.2,216.9 661.1,184.5 720.0,147.1"/>
<circle cx="72.0" cy="291.3" r="3" fill="#16a34a"/>
<circle cx="130.9" cy="293.7" r="3" fill="#16a34a"/>
<circle cx="189.8" cy="292.6" r="3" fill="#16a34a"/>
<circle cx="248.7" cy="289.6" r="3" fill="#16a34a"/>
<circle cx="307.6" cy="290.9" r="3" fill="#16a34a"/>
<circle cx="366.5" cy="277.8" r="3" fill="#16a34a"/>
<circle cx="425.5" cy="270.4" r="3" fill="#16a34a"/>
<circle cx="484.4" cy="258.8" r="3" fill="#16a34a"/>
<circle cx="543.3" cy="235.4" r="3" fill="#16a34a"/>
<circle cx="602.2" cy="216.9" r="3" fill="#16a34a"/>
<circle cx="661.1" cy="184.5" r="3" fill="#16a34a"/>
<circle cx="720.0" cy="147.1" r="3" fill="#16a34a"/>
<polyline fill="none" stroke="#d1d5db" stroke-width="2" stroke-dasharray="2,2" points="72.0,423.6 130.9,403.1 189.8,378.1 248.7,355.6 307.6,324.5 366.5,236.6 425.5,222.4 484.4,166.5 543.3,144.0 602.2,101.3 661.1,89.2 720.0,63.5"/>
<circle cx="72.0" cy="423.6" r="3" fill="#d1d5db"/>
<circle cx="130.9" cy="403.1" r="3" fill="#d1d5db"/>
<circle cx="189.8" cy="378.1" r="3" fill="#d1d5db"/>
<circle cx="248.7" cy="355.6" r="3" fill="#d1d5db"/>
<circle cx="307.6" cy="324.5" r="3" fill="#d1d5db"/>
<circle cx="366.5" cy="236.6" r="3" fill="#d1d5db"/>
<circle cx="425.5" cy="222.4" r="3" fill="#d1d5db"/>
<circle cx="484.4" cy="166.5" r="3" fill="#d1d5db"/>
<circle cx="543.3" cy="144.0" r="3" fill="#d1d5db"/>
<circle cx="602.2" cy="101.3" r="3" fill="#d1d5db"/>
<circle cx="661.1" cy="89.2" r="3" fill="#d1d5db"/>
<circle cx="720.0" cy="63.5" r="3" fill="#d1d5db"/>
<polyline fill="none" stroke="#047857" stroke-width="2" stroke-dasharray="6,3" points="72.0,207.6 130.9,210.3 189.8,209.4 248.7,206.7 307.6,205.9 366.5,194.7 425.5,189.3 484.4,181.3 543.3,162.0 602.2,132.3 661.1,94.2"/>
<circle cx="72.0" cy="207.6" r="3" fill="#047857"/>
<circle cx="130.9" cy="210.3" r="3" fill="#047857"/>
<circle cx="189.8" cy="209.4" r="3" fill="#047857"/>
<circle cx="248.7" cy="206.7" r="3" fill="#047857"/>
<circle cx="307.6" cy="205.9" r="3" fill="#047857"/>
<circle cx="366.5" cy="194.7" r="3" fill="#047857"/>
<circle cx="425.5" cy="189.3" r="3" fill="#047857"/>
<circle cx="484.4" cy="181.3" r="3" fill="#047857"/>
<circle cx="543.3" cy="162.0" r="3" fill="#047857"/>
<circle cx="602.2" cy="132.3" r="3" fill="#047857"/>
<circle cx="661.1" cy="94.2" r="3" fill="#047857"/>
<polyline fill="none" stroke="#84cc16" stroke-width="2" stroke-dasharray="10,4" points="72.0,276.7 130.9,279.3 189.8,275.7 248.7,277.4 307.6,243.0 366.5,224.8 425.5,234.8 484.4,220.9 543.3,214.2 602.2,191.5 661.1,161.6 720.0,124.5"/>
<circle cx="72.0" cy="276.7" r="3" fill="#84cc16"/>
<circle cx="130.9" cy="279.3" r="3" fill="#84cc16"/>
<circle cx="189.8" cy="275.7" r="3" fill="#84cc16"/>
<circle cx="248.7" cy="277.4" r="3" fill="#84cc16"/>
<circle cx="307.6" cy="243.0" r="3" fill="#84cc16"/>
<circle cx="366.5" cy="224.8" r="3" fill="#84cc16"/>
<circle cx="425.5" cy="234.8" r="3" fill="#84cc16"/>
<circle cx="484.4" cy="220.9" r="3" fill="#84cc16"/>
<circle cx="543.3" cy="214.2" r="3" fill="#84cc16"/>
<circle cx="602.2" cy="191.5" r="3" fill="#84cc16"/>
<circle cx="661.1" cy="161.6" r="3" fill="#84cc16"/>
<circle cx="720.0" cy="124.5" r="3" fill="#84cc16"/>
<line x1="732" y1="60" x2="756" y2="60" stroke="#6b7280" stroke-width="2" stroke-dasharray=""/>
<text x="762" y="64" font-size="11" fill="#111827">macOS cpu</text>
<line x1="732" y1="78" x2="756" y2="78" stroke="#2563eb" stroke-width="2" stroke-dasharray=""/>
<text x="762" y="82" font-size="11" fill="#111827">macOS metal</text>
<line x1="732" y1="96" x2="756" y2="96" stroke="#7c3aed" stroke-width="2" stroke-dasharray=""/>
<text x="762" y="100" font-size="11" fill="#111827">macOS mlx</text>
<line x1="732" y1="114" x2="756" y2="114" stroke="#0d9488" stroke-width="2" stroke-dasharray=""/>
<text x="762" y="118" font-size="11" fill="#111827">macOS wgpu</text>
<line x1="732" y1="132" x2="756" y2="132" stroke="#9ca3af" stroke-width="2" stroke-dasharray="4,3"/>
<text x="762" y="136" font-size="11" fill="#111827">Win cpu</text>
<line x1="732" y1="150" x2="756" y2="150" stroke="#059669" stroke-width="2" stroke-dasharray=""/>
<text x="762" y="154" font-size="11" fill="#111827">Win wgpu</text>
<line x1="732" y1="168" x2="756" y2="168" stroke="#16a34a" stroke-width="2" stroke-dasharray="8,4"/>
<text x="762" y="172" font-size="11" fill="#111827">Win cuda</text>
<line x1="732" y1="186" x2="756" y2="186" stroke="#d1d5db" stroke-width="2" stroke-dasharray="2,2"/>
<text x="762" y="190" font-size="11" fill="#111827">WSL cpu</text>
<line x1="732" y1="204" x2="756" y2="204" stroke="#047857" stroke-width="2" stroke-dasharray="6,3"/>
<text x="762" y="208" font-size="11" fill="#111827">WSL wgpu</text>
<line x1="732" y1="222" x2="756" y2="222" stroke="#84cc16" stroke-width="2" stroke-dasharray="10,4"/>
<text x="762" y="226" font-size="11" fill="#111827">WSL cuda</text>
  <text x="72" y="500" font-size="10" fill="#6b7280">WSL wgpu: no point at n=4096 (arena exceeds 128 MiB storage binding)</text>
</svg>
